# AST/ASF file generated using VICON BodyLanguage
# -----------------------------------------------
:version 1.10
:name VICON
:units
  mass 1.0
  length 0.45
  angle deg
:documentation
   .ast/.asf automatically generated from VICON data using
   VICON BodyBuilder and BodyLanguage model FoxedUp or BRILLIANT.MOD
:root
   order TX TY TZ RX RY RZ
   axis XYZ
   position 0 0 0  
   orientation 0 0 0 
:bonedata
  begin
     id 1 
     name lhipjoint
     direction 0.561001 -0.76473 0.316963 
     length 2.4722 
     axis 0 0 0  XYZ
  end
  begin
     id 2 
     name lfemur
     direction 0.34202 -0.939693 0  
     length 7.59403  
     axis 0 0 20  XYZ
    dof rx ry rz
    limits (-160.0 20.0)
           (-70.0 70.0)
           (-60.0 70.0)
  end
  begin
     id 3 
     name ltibia
     direction 0.34202 -0.939693 0   
     length 7.89655   
     axis 0 0 20   XYZ
    dof rx
    limits (-10.0 170.0)
  end
  begin
     id 4 
     name lfoot
     direction 0.061296 -0.168409 0.98381   
     length 2.73287   
     axis -90 7.62852e-016 20   XYZ
    dof rx rz
    limits (-45.0 90.0)
           (-70.0 20.0)
  end
  begin
     id 5 
     name ltoes
     direction 1.53547e-011 -4.21984e-011 1   
     length 1.37057   
     axis -90 7.62852e-016 20   XYZ
    dof rx
    limits (-90.0 20.0)
  end
  begin
     id 6 
     name rhipjoint
     direction -0.559611 -0.765599 0.317323   
     length 2.46939  
     axis 0 0 0  XYZ 
  end
  begin
     id 7 
     name rfemur
     direction -0.34202 -0.939693 0   
     length 7.53712   
     axis 0 0 -20   XYZ
    dof rx ry rz
    limits (-160.0 20.0)
           (-70.0 70.0)
           (-70.0 60.0)
  end
  begin
     id 8 
     name rtibia
     direction -0.34202 -0.939693 0   
     length 8.12549   
     axis 0 0 -20   XYZ
    dof rx
    limits (-10.0 170.0)
 end
 begin
     id 9 
     name rfoot
     direction -0.066984 -0.184037 0.980634   
     length 2.67541  
     axis -90 -7.62852e-016 -20   XYZ
    dof rx rz
    limits (-45.0 90.0)
           (-20.0 70.0)
  end
  begin
     id 10 
     name rtoes
     direction -1.53549e-011 -4.21786e-011 1   
     length 1.34085   
     axis -90 -7.62852e-016 -20   XYZ
    dof rx
    limits (-90.0 20.0)
  end
  begin
     id 11 
     name lowerback
     direction -0.0522728 0.992594 -0.109658   
     length 2.05633   
     axis 0 0 0   XYZ
    dof rx ry rz
    limits (-20.0 45.0)
           (-30.0 30.0)
           (-30.0 30.0)
  end
  begin
     id 12 
     name upperback
     direction 0.00589338 0.999977 0.00335704   
     length 2.05845   
     axis 0 0 0   XYZ
    dof rx ry rz
    limits (-20.0 45.0)
           (-30.0 30.0)
           (-30.0 30.0)
  end
  begin
     id 13 
     name thorax
     direction 0.0292928 0.998059 0.0549487   
     length 2.09281   
     axis 0 0 0   XYZ
    dof rx ry rz
    limits (-20.0 45.0)
           (-30.0 30.0)
           (-30.0 30.0)
  end
  begin
     id 14 
     name lowerneck
     direction 0.0356368 0.980775 0.191858   
     length 1.84767   
     axis 0 0 0   XYZ
    dof rx ry rz
    limits (-20.0 45.0)
           (-30.0 30.0)
           (-30.0 30.0)
  end
  begin
     id 15 
     name upperneck
     direction -0.0227605 0.98931 -0.14404   
     length 1.89582   
     axis 0 0 0   XYZ
    dof rx ry rz
    limits (-20.0 45.0)
           (-30.0 30.0)
           (-30.0 30.0)
  end
  begin
     id 16
     name head
     direction -0.00932985 0.997511 -0.0698904  
     length 1.90213  
     axis 0 0 0   XYZ
    dof rx ry rz
    limits (-20.0 45.0)
           (-30.0 30.0)
           (-30.0 30.0)
  end
  begin
     id 17 
     name lclavicle
     direction 0.873442 0.479511 0.0846686  
     length 3.41193  
     axis 0 0 0   XYZ
    dof ry rz
    limits (-20.0 10.0)
           (0.0 20.0)
  end
  begin
     id 18 
     name lhumerus
     direction 1 -4.4897e-011 -5.62117e-018   
     length 5.59864   
     axis 180 -30 -90   XYZ
    dof rx ry rz
    limits (-60.0 90.0)
           (-90.0 90.0)
           (-90.0 90.0)
  end
  begin
     id 19
     name lradius
     direction 1 -4.48966e-011 -6.26295e-027   
     length 3.59542   
     axis 180 -30 -90   XYZ
    dof rx
    limits (-10.0 170.0)
  end
  begin
     id 20
     name lwrist
     direction 1 -4.48947e-011 -1.74096e-026   
     length 1.79771   
     axis 1.04567e-014 90 90   XYZ
    dof ry
    limits (-180.0 0.0)
 end
  begin
     id 21 
     name lhand
     direction 1 -4.49085e-011 -3.48469e-026   
     length 0.572014   
     axis 2.22196e-014 90 90   XYZ
    dof rx rz
    limits (-90.0 90.0)
           (-45.0 45.0)
  end
  begin
     id 22 
     name lfingers
     direction 1 -4.48884e-011 -6.96135e-026   
     length 0.461173   
     axis 4.44383e-014 90 90   XYZ
    dof rx
    limits (0.0 90.0)
  end
  begin
     id 23
     name lthumb
     direction 0.707107 -6.34976e-011 0.707107   
     length 0.662154   
     axis -90 45 -5.4397e-014   XYZ
    dof rx rz
    limits (-45.0 45.0)
           (-45.0 45.0)
  end
  begin
     id 24 
     name rclavicle
     direction -0.890242 0.443271 0.104786   
     length 3.46753  
     axis 0 0 0   XYZ 
    dof ry rz
    limits (-10.0 20.0)
           (-20.0 0.0)
  end
  begin
     id 25 
     name rhumerus
     direction -1 -4.48963e-011 -5.41723e-018  
     length 5.8094   
     axis 180 30 90   XYZ
    dof rx ry rz
    limits (-90.0 60.0)
           (-90.0 90.0)
           (-90.0 90.0)
  end
  begin
     id 26 
     name rradius
     direction -1 -4.48958e-011 -6.51059e-027   
     length 3.66953   
     axis 180 30 90   XYZ
    dof rx
    limits (-10.0 170.0)
  end
  begin
     id 27 
     name rwrist
     direction -1 -4.48975e-011 -1.74124e-026   
     length 1.83476   
     axis 1.04567e-014 -90 -90   XYZ
    dof ry
    limits (-180.0 0.0)
  end
  begin
     id 28
     name rhand
     direction -1 -4.49013e-011 -3.48326e-026   
     length 0.57843   
     axis 2.22196e-014 -90 -90   XYZ
    dof rx rz
    limits (-90.0 90.0)
           (-45.0 45.0)
  end
  begin
     id 29
     name rfingers
     direction -1 -4.49023e-011 -6.9669e-026   
     length 0.466345   
     axis 4.44383e-014 -90 -90   XYZ
    dof rx
    limits (0.0 90.0)
  end
  begin
     id 30
     name rthumb
     direction -0.707107 -6.34926e-011 0.707107   
     length 0.669581   
     axis -90 -45 5.4397e-014   XYZ
    dof rx rz
    limits (-45.0 45.0)
           (-45.0 45.0)
  end
:hierarchy
  begin
    root lhipjoint rhipjoint lowerback
    lhipjoint lfemur
    lfemur ltibia
    ltibia lfoot
    lfoot ltoes
    rhipjoint rfemur
    rfemur rtibia
    rtibia rfoot
    rfoot rtoes
    lowerback upperback
    upperback thorax
    thorax lowerneck lclavicle rclavicle
    lowerneck upperneck
    upperneck head
    lclavicle lhumerus
    lhumerus lradius
    lradius lwrist
    lwrist lhand lthumb
    lhand lfingers
    rclavicle rhumerus
    rhumerus rradius
    rradius rwrist
    rwrist rhand rthumb
    rhand rfingers
  end

#!OML:ASF H:\SkateBoarding\Project 1\Capture day 1\Session 1\Skater.ASF
:FULLY-SPECIFIED
:DEGREES
276
root 5.15079 15.4147 41.7934 14.8932 62.4671 -7.53024
lowerback 27.3558 0.165573 -3.11275
upperback 3.42885 -0.401478 0.794323
thorax -11.3278 0.0553163 2.82882
lowerneck -24.8842 -12.7577 -8.03316
upperneck 14.6285 -18.3678 16.2441
head 11.2104 -7.09393 3.77954
rclavicle 6.24184e-014 1.63003e-014
rhumerus 2.44245 31.0065 -78.2552
rradius 52.2481
rwrist -16.9881
rhand -43.7138 -0.912813
rfingers 7.12502
rthumb -16.5457 -30.2274
lclavicle 6.24184e-014 1.63003e-014
lhumerus 1.31261 -23.7654 54.6392
lradius 78.2896
lwrist 23.9234
lhand -31.2567 1.13464
lfingers 7.12502
lthumb -4.53102 31.0662
rfemur -84.7307 2.36287 18.5184
rtibia 97.5724
rfoot -15.0616 23.0245
rtoes -1.62067
lfemur -70.5903 7.54211 -7.29909
ltibia 104.516
lfoot -51.4348 -5.22364
ltoes -19.2257
277
root 5.17608 15.5875 42.082 14.9335 62.7653 -7.30403
lowerback 27.1238 0.106344 -3.19137
upperback 3.36921 -0.494737 0.816432
thorax -11.2675 0.0147068 2.93035
lowerneck -24.8369 -12.7418 -8.06746
upperneck 14.9111 -18.3381 16.0573
head 11.2806 -7.09041 3.72832
rclavicle -1.47101e-014 6.75868e-015
rhumerus 2.18993 31.2793 -78.443
rradius 52.0498
rwrist -16.8554
rhand -43.4234 -0.889671
rfingers 7.12502
rthumb -16.266 -30.2274
lclavicle -1.47101e-014 6.75868e-015
lhumerus 0.977532 -23.9264 55.3176
lradius 77.872
lwrist 23.8352
lhand -31.1153 1.40124
lfingers 7.12502
lthumb -4.39451 31.3356
rfemur -83.307 2.32897 18.4131
rtibia 95.9361
rfoot -15.0344 22.7354
rtoes -1.41806
lfemur -69.4609 6.85463 -7.36671
ltibia 102.76
lfoot -51.2606 -4.78943
ltoes -19.2417
278
root 5.20104 15.7645 42.3686 14.9358 63.0738 -7.10356
lowerback 26.9189 0.0315477 -3.18395
upperback 3.30385 -0.590346 0.787609
thorax -11.229 -0.0316512 2.92506
lowerneck -24.7864 -12.7356 -8.08429
upperneck 15.2307 -18.3483 15.9261
head 11.3757 -7.09518 3.6857
rclavicle 5.56597e-015 3.85642e-014
rhumerus 1.86 31.4656 -78.7406
rradius 51.8511
rwrist -16.6871
rhand -43.5404 -0.776071
rfingers 7.12502
rthumb -16.3788 -30.1045
lclavicle 5.56597e-015 3.85642e-014
lhumerus 0.71042 -24.1124 55.965
lradius 77.3624
lwrist 23.6929
lhand -30.8041 1.50083
lfingers 7.12502
lthumb -4.09393 31.4412
rfemur -81.8636 2.40251 18.2362
rtibia 94.2511
rfoot -15.1916 22.2672
rtoes -1.4178
lfemur -68.341 6.15427 -7.45062
ltibia 100.983
lfoot -51.0613 -4.43523
ltoes -18.8721
279
root 5.22685 15.9379 42.6543 14.9118 63.3447 -6.90886
lowerback 26.7282 -0.0258185 -3.19958
upperback 3.24637 -0.668575 0.772036
thorax -11.1894 -0.0687288 2.94175
lowerneck -24.6885 -12.7641 -8.24543
upperneck 15.5313 -18.39 15.9234
head 11.4912 -7.11136 3.70497
rclavicle 3.10104e-014 1.59028e-015
rhumerus 1.55867 31.6977 -78.9893
rradius 51.6032
rwrist -16.6587
rhand -43.3833 -0.862431
rfingers 7.12502
rthumb -16.2274 -30.2033
lclavicle 3.10104e-014 1.59028e-015
lhumerus 0.280902 -24.271 56.7075
lradius 76.9414
lwrist 23.5311
lhand -30.5009 1.61417
lfingers 7.12502
lthumb -3.80113 31.56
rfemur -80.4035 2.35246 18.1287
rtibia 92.5284
rfoot -14.9521 22.0602
rtoes -1.07933
lfemur -67.2633 5.52674 -7.58547
ltibia 99.2399
lfoot -50.8063 -3.8067
ltoes -18.8181
280
root 5.25216 16.1115 42.9376 14.763 63.6034 -6.84328
lowerback 26.5398 -0.0669123 -3.16484
upperback 3.18901 -0.712277 0.751465
thorax -11.154 -0.0923077 2.9113
lowerneck -24.6148 -12.7513 -8.1886
upperneck 15.8594 -18.4123 15.7714
head 11.5779 -7.12054 3.64225
rclavicle -1.59028e-015 -8.34896e-015
rhumerus 1.21821 31.8083 -79.3093
rradius 51.2897
rwrist -16.4989
rhand -42.7015 -0.589465
rfingers 7.12502
rthumb -15.5709 -29.9827
lclavicle -1.59028e-015 -8.34896e-015
lhumerus -0.0123165 -24.5158 57.3619
lradius 76.4028
lwrist 23.4266
lhand -30.3022 1.7809
lfingers 7.12502
lthumb -3.60933 31.7301
rfemur -78.9307 2.42102 18.0094
rtibia 90.7567
rfoot -15.0193 21.6616
rtoes -1.1776
lfemur -66.1549 5.02185 -7.72762
ltibia 97.4707
lfoot -50.5956 -3.17057
ltoes -18.8522
281
root 5.27802 16.2821 43.2195 14.8693 63.8336 -6.50463
lowerback 26.3395 -0.102298 -3.20805
upperback 3.11685 -0.77781 0.678452
thorax -11.1271 -0.123731 2.87404
lowerneck -24.5606 -12.7267 -8.14552
upperneck 16.2478 -18.4166 15.5995
head 11.6875 -7.1202 3.57811
rclavicle -5.96354e-015 2.3059e-014
rhumerus 0.841827 31.8632 -79.6745
rradius 50.9843
rwrist -16.3574
rhand -42.5009 -0.8336
rfingers 7.12502
rthumb -15.3777 -30.2417
lclavicle -5.96354e-015 2.3059e-014
lhumerus -0.380847 -24.788 58.0368
lradius 75.9353
lwrist 23.3725
lhand -30.0721 2.03009
lfingers 7.12502
lthumb -3.38706 31.9829
rfemur -77.4849 2.35337 17.7876
rtibia 88.9649
rfoot -14.9492 21.3088
rtoes -1.01422
lfemur -65.0939 4.52789 -8.03214
ltibia 95.7137
lfoot -50.3516 -2.53845
ltoes -18.8039
282
root 5.30477 16.4498 43.4996 14.8081 64.0791 -6.34347
lowerback 26.1283 -0.148113 -3.17004
upperback 3.06109 -0.828994 0.63493
thorax -11.0774 -0.151986 2.81764
lowerneck -24.5207 -12.7087 -8.06556
upperneck 16.6257 -18.4426 15.4398
head 11.7973 -7.12547 3.50729
rclavicle 8.74653e-015 -6.36111e-015
rhumerus 0.523886 31.9572 -79.966
rradius 50.6217
rwrist -16.2996
rhand -43.016 -1.1553
rfingers 7.12502
rthumb -15.8738 -30.5246
lclavicle 8.74653e-015 -6.36111e-015
lhumerus -0.761577 -25.0179 58.7258
lradius 75.4201
lwrist 23.2013
lhand -29.7393 2.21359
lfingers 7.12502
lthumb -3.06567 32.1713
rfemur -75.9876 2.3999 17.6034
rtibia 87.1009
rfoot -15.001 20.8942
rtoes -1.08754
lfemur -64.0379 4.0736 -8.27655
ltibia 93.9488
lfoot -50.1199 -1.85705
ltoes -18.9084
283
root 5.33256 16.6188 43.7778 14.8781 64.3474 -6.02356
lowerback 25.9239 -0.190869 -3.14893
upperback 2.98403 -0.88434 0.575054
thorax -11.0552 -0.181218 2.75433
lowerneck -24.3979 -12.6987 -8.13799
upperneck 17.0233 -18.449 15.3354
head 11.92 -7.12869 3.48672
rclavicle 1.23246e-014 -1.07344e-014
rhumerus 0.0849212 31.9502 -80.34
rradius 50.218
rwrist -16.2521
rhand -42.8038 -1.2094
rfingers 7.12502
rthumb -15.6694 -30.5949
lclavicle 1.23246e-014 -1.07344e-014
lhumerus -1.10772 -25.2539 59.5218
lradius 74.782
lwrist 22.9542
lhand -29.4262 2.45384
lfingers 7.12502
lthumb -2.76327 32.4157
rfemur -74.4647 2.42217 17.2983
rtibia 85.1902
rfoot -15.0613 20.5147
rtoes -1.15392
lfemur -62.9617 3.59455 -8.63158
ltibia 92.1442
lfoot -49.8769 -1.18559
ltoes -18.6572
284
root 5.35987 16.7897 44.0581 14.9817 64.567 -5.67538
lowerback 25.6707 -0.218834 -3.2235
upperback 2.92647 -0.944452 0.519141
thorax -10.9825 -0.209661 2.75094
lowerneck -24.3062 -12.6417 -7.99982
upperneck 17.414 -18.4206 15.0949
head 12.0025 -7.1181 3.39222
rclavicle 1.07344e-014 -2.06736e-014
rhumerus -0.28475 31.8778 -80.769
rradius 49.6967
rwrist -16.0812
rhand -42.5974 -1.15068
rfingers 7.12502
rthumb -15.4706 -30.5517
lclavicle 1.07344e-014 -2.06736e-014
lhumerus -1.55455 -25.1202 60.5802
lradius 73.962
lwrist 22.3936
lhand -28.9449 2.8119
lfingers 7.12502
lthumb -2.29852 32.7793
rfemur -72.922 2.47051 16.9586
rtibia 83.2194
rfoot -15.1241 20.1389
rtoes -1.20265
lfemur -61.8639 3.18136 -9.00436
ltibia 90.3068
lfoot -49.6131 -0.432196
ltoes -19.2564
285
root 5.38755 16.9568 44.3363 14.9704 64.8003 -5.44637
lowerback 25.4041 -0.227264 -3.23501
upperback 2.87268 -0.958154 0.487282
thorax -10.9019 -0.219153 2.72205
lowerneck -24.1395 -12.6372 -8.03359
upperneck 17.7704 -18.4373 14.9756
head 12.098 -7.13029 3.35965
rclavicle 1.94809e-014 -1.51076e-014
rhumerus -0.622328 31.8782 -81.0353
rradius 49.1849
rwrist -16.1878
rhand -41.8452 -1.17485
rfingers 7.12502
rthumb -14.746 -30.6303
lclavicle 1.94809e-014 -1.51076e-014
lhumerus -1.90867 -25.2741 61.4624
lradius 73.2227
lwrist 22.118
lhand -28.9968 3.62254
lfingers 7.12502
lthumb -2.3486 33.5894
rfemur -71.3204 2.63268 16.6
rtibia 81.1796
rfoot -15.2191 19.8598
rtoes -1.03107
lfemur -60.7746 2.86547 -9.35538
ltibia 88.4609
lfoot -49.3181 0.147833
ltoes -19.2418
286
root 5.41781 17.1197 44.6175 14.9883 64.9775 -5.15516
lowerback 25.1535 -0.209607 -3.33778
upperback 2.82269 -0.963169 0.454235
thorax -10.8242 -0.220527 2.74176
lowerneck -24.0055 -12.625 -8.01728
upperneck 18.1647 -18.4572 14.8307
head 12.2065 -7.13953 3.30869
rclavicle -2.66371e-014 -3.18055e-015
rhumerus -0.986848 31.7468 -81.4136
rradius 48.5526
rwrist -16.0622
rhand -41.6814 -1.26834
rfingers 7.12502
rthumb -14.5883 -30.7353
lclavicle -2.66371e-014 -3.18055e-015
lhumerus -2.41979 -25.245 62.4935
lradius 72.471
lwrist 21.6673
lhand -28.5942 3.86498
lfingers 7.12502
lthumb -1.95981 33.8357
rfemur -69.7374 2.54685 16.3792
rtibia 79.1323
rfoot -15.5429 19.4182
rtoes -2.48599
lfemur -59.6313 2.59513 -9.74945
ltibia 86.616
lfoot -49.0226 0.943396
ltoes -19.4743
287
root 5.44897 17.2813 44.8963 14.9186 65.1852 -4.93107
lowerback 24.911 -0.215233 -3.34791
upperback 2.7775 -0.974689 0.403696
thorax -10.7465 -0.229364 2.69074
lowerneck -23.8436 -12.6173 -8.04701
upperneck 18.5756 -18.4826 14.728
head 12.3281 -7.1497 3.2801
rclavicle 5.84427e-014 -2.34566e-014
rhumerus -1.38198 31.5665 -81.8497
rradius 47.9089
rwrist -15.9968
rhand -41.435 -1.48139
rfingers 7.12502
rthumb -14.3508 -30.9654
lclavicle 5.84427e-014 -2.34566e-014
lhumerus -2.90891 -25.2366 63.4824
lradius 71.7128
lwrist 21.2736
lhand -28.1348 4.19414
lfingers 7.12502
lthumb -1.51606 34.1685
rfemur -67.908 2.79207 16.1119
rtibia 76.9683
rfoot -15.6085 19.2234
rtoes -1.54621
lfemur -58.4564 2.35403 -10.1401
ltibia 84.7368
lfoot -48.7544 1.84573
ltoes -20.0455
288
root 5.48016 17.4437 45.1774 14.887 65.3524 -4.66582
lowerback 24.6962 -0.193701 -3.44744
upperback 2.70586 -0.975449 0.368024
thorax -10.7123 -0.227902 2.7053
lowerneck -23.7101 -12.6071 -8.09777
upperneck 19.0431 -18.5087 14.6397
head 12.4821 -7.15484 3.25929
rclavicle 1.27222e-014 -1.63003e-014
rhumerus -1.83113 31.3877 -82.2926
rradius 47.2263
rwrist -15.8609
rhand -41.0976 -1.69696
rfingers 7.12502
rthumb -14.0257 -31.2037
lclavicle 1.27222e-014 -1.63003e-014
lhumerus -3.49973 -25.2314 64.4956
lradius 70.8575
lwrist 21.0994
lhand -27.7816 4.07841
lfingers 7.12502
lthumb -1.17496 34.0549
rfemur -66.1845 2.90747 15.7976
rtibia 74.7806
rfoot -15.569 18.9678
rtoes -1.17576
lfemur -57.265 2.19803 -10.5466
ltibia 82.8672
lfoot -48.4591 2.67401
ltoes -20.4815
289
root 5.51361 17.6036 45.4595 14.7365 65.5736 -4.52498
lowerback 24.4608 -0.182393 -3.49647
upperback 2.64853 -0.970065 0.366749
thorax -10.6511 -0.225608 2.72676
lowerneck -23.6077 -12.6095 -8.11833
upperneck 19.5148 -18.5357 14.4616
head 12.6292 -7.16793 3.1995
rclavicle -3.06128e-014 -6.75868e-015
rhumerus -2.25945 31.1051 -82.7177
rradius 46.4831
rwrist -15.6906
rhand -40.6 -1.8911
rfingers 7.12502
rthumb -13.5461 -31.4305
lclavicle -3.06128e-014 -6.75868e-015
lhumerus -4.10209 -25.0662 65.6239
lradius 70.0245
lwrist 20.6985
lhand -27.3864 4.18761
lfingers 7.12502
lthumb -0.793279 34.1659
rfemur -64.3817 3.01431 15.5576
rtibia 72.4518
rfoot -15.4818 18.6829
rtoes -0.867847
lfemur -56.0421 2.01909 -10.8702
ltibia 81.0211
lfoot -48.2097 3.28865
ltoes -20.796
